<?xml version="1.0" encoding="UTF-8"?>
<svg
  xmlns="http://www.w3.org/2000/svg"
  width="500"
  height="500"
  viewBox="0 0 375 375"
  role="img"
  aria-labelledby="calendar-title"
>
  <title id="calendar-title">Тамыз 2026 күнтізбесі</title>
  <style>
    text {
      fill: #fff;
      font-family: "Cormorant Infant", Georgia, serif;
      font-size: 20px;
      font-weight: 400;
      text-anchor: middle;
    }

    .weekday {
      font-size: 19px;
      text-transform: uppercase;
    }
  </style>

  <g transform="translate(-14,0)">
    <g
      transform="translate(351,156) scale(0.46)"
      fill="none"
      stroke="#ffffff"
      stroke-width="6.5"
      stroke-linejoin="round"
    >
      <path d="M0,-28 C-20,-54 -56,-34 -56,-4 C-56,26 -16,46 0,62 C16,46 56,26 56,-4 C56,-34 20,-54 0,-28 Z" />
    </g>

    <g class="weekday">
      <text x="27" y="48">ДС</text>
      <text x="81" y="48">СС</text>
      <text x="135" y="48">СР</text>
      <text x="189" y="48">БС</text>
      <text x="243" y="48">ЖМ</text>
      <text x="297" y="48">СН</text>
      <text x="351" y="48">ЖС</text>
    </g>

    <g>
      <text x="297" y="115">1</text>
      <text x="351" y="115">2</text>

      <text x="27" y="164">3</text>
      <text x="81" y="164">4</text>
      <text x="135" y="164">5</text>
      <text x="189" y="164">6</text>
      <text x="243" y="164">7</text>
      <text x="297" y="164">8</text>
      <text x="351" y="164">9</text>

      <text x="27" y="212">10</text>
      <text x="81" y="212">11</text>
      <text x="135" y="212">12</text>
      <text x="189" y="212">13</text>
      <text x="243" y="212">14</text>
      <text x="297" y="212">15</text>
      <text x="351" y="212">16</text>

      <text x="27" y="260">17</text>
      <text x="81" y="260">18</text>
      <text x="135" y="260">19</text>
      <text x="189" y="260">20</text>
      <text x="243" y="260">21</text>
      <text x="297" y="260">22</text>
      <text x="351" y="260">23</text>

      <text x="27" y="308">24</text>
      <text x="81" y="308">25</text>
      <text x="135" y="308">26</text>
      <text x="189" y="308">27</text>
      <text x="243" y="308">28</text>
      <text x="297" y="308">29</text>
      <text x="351" y="308">30</text>

      <text x="27" y="357">31</text>
    </g>
  </g>
</svg>
